# xmcd
#
# Track frame offsets: 
#        150
#        15100
#        28587
#        42312
#        54600
#        66775
#        79762
#        89737
#        102237
#        115712
#        126350
#        137337
#        147462
#        161400
#        170862
#        182312
#        195837
#        208525
#        218687
#        231287
#        242587
#        254737
#        266775
#        280550
#
# Disc length: 3877 seconds
#
# Revision: 1
# Processed by: cddbd v1.5.2PL0 Copyright (c) Steve Scherf et al.
# Submitted via: ExactAudioCopy v1.0b3
#
DISCID=500f2318
DTITLE=Roy Hamilton - You'll Never Walk Alone
DYEAR=1999
DGENRE=Soul
TTITLE0=You'll Never Walk Alone
TTITLE1=I'm Gonna Sit Right Down And Cry (Over You)
TTITLE2=If I Loved You
TTITLE3=So Let There Be Love
TTITLE4=Ebb Tide
TTITLE5=Beware
TTITLE6=I Believe
TTITLE7=The House I Live In (That's America To Me)
TTITLE8=Unchained Melody [Single Version]
TTITLE9=Forgive This Fool
TTITLE10=You Wanted To Change Me
TTITLE11=Hurt [Single Version]
TTITLE12=The Golden Boy
TTITLE13=Earthbound
TTITLE14=Love Is A Many-Splendored Thing
TTITLE15=Sweet Slumber
TTITLE16=The Perfect Heart
TTITLE17=Walk Along With Kings
TTITLE18=There Goes My Heart
TTITLE19=If I Were A Countryside
TTITLE20=Somebody Somewhere
TTITLE21=Someday, I'll Meet You Again [Album]
TTITLE22=Oh! What It Seemed To Be
TTITLE23=My Secret Emotion
EXTD=
EXTT0=
EXTT1=
EXTT2=
EXTT3=
EXTT4=
EXTT5=
EXTT6=
EXTT7=
EXTT8=
EXTT9=
EXTT10=
EXTT11=
EXTT12=
EXTT13=
EXTT14=
EXTT15=
EXTT16=
EXTT17=
EXTT18=
EXTT19=
EXTT20=
EXTT21=
EXTT22=
EXTT23=
PLAYORDER=
